<svg xmlns="http://www.w3.org/2000/svg" xmlns:xlink="http://www.w3.org/1999/xlink" width="25.599" height="25.599" fill-rule="evenodd" clip-rule="evenodd" image-rendering="optimizeQuality" shape-rendering="geometricPrecision" text-rendering="geometricPrecision" viewBox="0 0 0.267 0.267" xml:space="preserve"><g id="Layer_x0020_1"><metadata id="CorelCorpID_0Corel-Layer"/><path id="_313969736" fill="#373737" stroke="#373737" stroke-width=".008" d="M0.222031 0.214248c0.044689,-0.0489843 0.0412047,-0.124929 -0.00777953,-0.169622 -0.0489882,-0.044689 -0.124933,-0.0412047 -0.169622,0.00777953 -0.0446929,0.0489882 -0.0412087,0.124933 0.00777953,0.169622 0.0489843,0.0446929 0.124929,0.0412087 0.169622,-0.00777953z"/></g><g id="Layer_x0020_1_0"><metadata id="CorelCorpID_1Corel-Layer"/><g id="_255824728"><path id="_259750576" fill="#B7B7B7" fill-rule="nonzero" d="M0.065878 0.138713l0 -0.0107717c0.0838071,0 0.0300512,0 0.0745394,0l0.0603622 0 0 0.0107717 -0.0603622 0c-0.052685,0 0.0182874,0 -0.0745394,0z"/><path id="_259750576_0" fill="#B7B7B7" fill-rule="nonzero" d="M0.127945 0.065874l0.0107677 0c0,0.0838071 0,0.0300512 0,0.0745394l0 0.0603622 -0.0107677 0 0 -0.0603622c0,-0.052685 0,0.0182874 0,-0.0745394z"/></g></g></svg>