<svg xmlns="http://www.w3.org/2000/svg" xmlns:xlink="http://www.w3.org/1999/xlink" width="40" height="40" version="1.1" viewBox="0 0 40 40"><title>clipboard</title><desc>Created with Sketch.</desc><g id="Page-1" fill="none" fill-rule="evenodd" stroke="none" stroke-width="1"><g id="clipboard" stroke="#000" stroke-width=".979"><g id="Group" transform="translate(10.000000, 8.000000)"><g id="paste"><g id="Layer_1"><rect id="Rectangle-path" width="13.333" height="16.5" x="6.667" y="7.5"/><rect id="Rectangle-path" width="6.667" height="4" x="5.238" y="0"/><path id="Shape" d="M5.23809524,3 L1.9047619,3 L1.9047619,20 L5.71428571,20"/><path id="Shape" d="M15.2380952,6.5 L15.2380952,3 L11.9047619,3"/><path id="Shape" d="M5.23809524,1 L0.904761905,1 C0.428571429,1 0,1.45 0,1.95 L0,21 C0,21.55 0.428571429,22 0.904761905,22 L5.71428571,22"/><path id="Shape" d="M17.1428571,6.5 L17.1428571,1.95 C17.1428571,1.45 16.7142857,1 16.2380952,1 L11.9047619,1"/><path id="Shape" d="M9.52380952,11.5 L17.6190476,11.5"/><path id="Shape" d="M9.52380952,14.5 L15.2380952,14.5"/><path id="Shape" d="M9.52380952,17.5 L17.6190476,17.5"/><path id="Shape" d="M9.52380952,20.5 L15.2380952,20.5"/></g></g></g></g></g></svg>