<svg xmlns="http://www.w3.org/2000/svg" xmlns:xlink="http://www.w3.org/1999/xlink" width="25.599" height="25.599" fill-rule="evenodd" clip-rule="evenodd" image-rendering="optimizeQuality" shape-rendering="geometricPrecision" text-rendering="geometricPrecision" version="1.1" viewBox="0 0 0.267 0.267" xml:space="preserve"><g id="Layer_x0020_1"><metadata id="CorelCorpID_0Corel-Layer"/><g id="delete_activ.svg"><g id="Page-1"><g id="delete_activ"><g id="Shape"><path id="_261540424" fill="#FEFEFE" d="M0.018748 0.133331c0,0.0630197 0.051563,0.114583 0.114583,0.114583 0.0630197,0 0.114583,-0.051563 0.114583,-0.114583 0,-0.0630197 -0.051563,-0.114583 -0.114583,-0.114583 -0.0630197,0 -0.114583,0.051563 -0.114583,0.114583l0 0zm0.184374 0.0541654l-0.123957 -0.123957c0.0151024,-0.0119803 0.0338543,-0.018752 0.0541654,-0.018752 0.0489567,0 0.0885433,0.0395866 0.0885433,0.0885433 0,0.020311 -0.00677165,0.039063 -0.018752,0.0541654l0 0zm-0.158335 -0.0541654c0,-0.020311 0.00677165,-0.039063 0.018752,-0.0541654l0.123957 0.123957c-0.0151024,0.0119803 -0.0338543,0.018752 -0.0541654,0.018752 -0.0489567,0 -0.0885433,-0.0395866 -0.0885433,-0.0885433l0 0z"/></g></g></g></g></g></svg>