<svg xmlns="http://www.w3.org/2000/svg" xmlns:xlink="http://www.w3.org/1999/xlink" width="57.6" height="62.4" fill-rule="evenodd" clip-rule="evenodd" image-rendering="optimizeQuality" shape-rendering="geometricPrecision" text-rendering="geometricPrecision" version="1.1" viewBox="0 0 0.6 0.65" xml:space="preserve"><g id="Layer_x0020_1"><metadata id="CorelCorpID_0Corel-Layer"/><g id="denied"><path id="Shape" fill="none" stroke="#FEFEFE" stroke-width=".021" d="M0.0960354 0.616839c-0.0140197,0 -0.0254961,-0.011748 -0.0254961,-0.0261063l0 -0.313232c0,-0.0143622 0.0114764,-0.0261063 0.0254961,-0.0261063l0.407937 0c0.0140197,0 0.0254921,0.0117441 0.0254921,0.0261063l0 0.313232c0,0.0143583 -0.0114724,0.0261063 -0.0254921,0.0261063l-0.407937 0 0 0z"/><path id="Shape_0" fill="none" stroke="#FEFEFE" stroke-width=".021" d="M0.435417 0.241496l0 -0.0735276c0,-0.0747559 -0.0603228,-0.134807 -0.135417,-0.134807 -0.0750945,0 -0.135417,0.0600512 -0.135417,0.134807l0 0.0735276"/><path id="Shape_1" fill="#FEFEFE" d="M0.336465 0.40578c0,-0.021248 -0.0157992,-0.0375 -0.0364567,-0.0375 -0.0206614,0 -0.0364606,0.016252 -0.0364606,0.0375 0,0.011252 0.0048622,0.021252 0.0121535,0.0275l0 0.035c0,0.013752 0.010937,0.025 0.0243071,0.025 0.0133661,0 0.0243071,-0.011248 0.0243071,-0.025l0 -0.035c0.00729134,-0.00624803 0.0121496,-0.016248 0.0121496,-0.0275l0 0z"/></g></g></svg>