<svg xmlns="http://www.w3.org/2000/svg" xmlns:xlink="http://www.w3.org/1999/xlink" width="60" height="60" version="1.1" viewBox="0 0 60 60"><title>deleted</title><desc>Created with Sketch.</desc><g id="Page-1" fill="none" fill-rule="evenodd" stroke="none" stroke-width="1"><g id="deleted" stroke="#FFF" stroke-width="2.141"><g id="Group" transform="translate(12.000000, 6.000000)"><path id="Shape" d="M11,5 L11,2 C11,0.9 11.975,0 13.1666667,0 L21.8333333,0 C23.025,0 24,0.9 24,2 L24,5"/><path id="Shape" d="M0,5 L36,5"/><path id="Shape" d="M18,12 L18,39"/><path id="Shape" d="M24,12 L24,39"/><path id="Shape" d="M11,12 L11,39"/><path id="Shape" d="M34,5 L34,43.8974359 C34,45.0538462 33.04,46 31.8666667,46 L4.13333333,46 C2.96,46 2,45.0538462 2,43.8974359 L2,5"/></g></g></g></svg>