<svg xmlns="http://www.w3.org/2000/svg" xmlns:xlink="http://www.w3.org/1999/xlink" width="62.72" height="65.28" fill-rule="evenodd" clip-rule="evenodd" image-rendering="optimizeQuality" shape-rendering="geometricPrecision" text-rendering="geometricPrecision" version="1.1" viewBox="0 0 0.653 0.68" xml:space="preserve"><g id="Layer_x0020_1"><metadata id="CorelCorpID_0Corel-Layer"/><polygon id="Shape" fill="none" stroke="#FEFEFE" stroke-width=".021" points=".154 .616 .378 .227 .603 .616"/><path id="Shape_0" fill="#FEFEFE" d="M0.389925 0.52748c0.00229921,0 0.00344882,0.00114961 0.00344882,0.00344882l0 0.0241535c0,0.00229921 -0.00114961,0.00344882 -0.00344882,0.00344882l-0.0230039 0c-0.00229921,0 -0.00344882,-0.00114961 -0.00344882,-0.00344882l0 -0.0241535c0,-0.00229921 0.00114961,-0.00344882 0.00344882,-0.00344882l0.0230039 0 0 0zm-0.00114961 -0.164476c0.00229921,0 0.00344882,0.00114961 0.00344882,0.00344882l0 0.131122c0,0.00229921 -0.00114961,0.00344882 -0.00344882,0.00344882l-0.0218543 0c-0.00229921,0 -0.00344882,-0.00114961 -0.00344882,-0.00344882l0 -0.131122c0,-0.00229921 0.00114961,-0.00344882 0.00344882,-0.00344882l0.0218543 0 0 0z"/><path id="Shape_1" fill="none" stroke="#FEFEFE" stroke-width=".021" d="M0.236953 0.383709c-0.00805118,0.00114961 -0.017252,0.00229921 -0.0253031,0.00229921 -0.0885669,0 -0.161028,-0.0724606 -0.161028,-0.161024 0,-0.088563 0.0724606,-0.161028 0.161028,-0.161028 0.0724606,0 0.134567,0.048311 0.154122,0.11502"/><circle id="Oval" cx=".212" cy=".225" r=".021" fill="#FEFEFE" stroke="#FEFEFE" stroke-width=".007"/><polyline id="Shape_2" fill="none" stroke="#FEFEFE" stroke-width=".021" points=".158 .279 .212 .225 .212 .121"/></g><g id="Layer_x0020_1_3"><metadata id="CorelCorpID_1Corel-Layer"/></g></svg>